<svg width="1024" height="1025" viewBox="0 0 1024 1025" fill="none" xmlns="http://www.w3.org/2000/svg">
<g clip-path="url(#clip0_1_35)">
<path d="M1024 0.890015V1024.89H0V0.890015H1024ZM503 498.39V477.89C437.95 456.34 472.56 360.35 537.22 380.17C586.8 395.37 586.02 468.17 534.96 480.54L535.08 546.45L533 550.88H540C541 547.68 538.12 548.44 537.92 546.45C537.43 541.64 537.12 502.69 538.44 500.83C597.47 486.75 615.08 414.01 568.01 374.38C537.98 349.09 491.92 353.29 466.03 382.42C430.5 422.39 448.6 486.64 500.94 499.49L503.01 498.39H503ZM277.5 358.89C260.65 357.18 241.13 360.16 224 358.89V499.89H280.5C284.27 499.89 295.14 496.95 298.98 495.37C332.67 481.48 326.23 428.9 290 424.88L301.01 418.4C324.72 395.32 309.05 362.08 277.5 358.89ZM364 358.89H354V499.89H435V490.89H364V358.89ZM732 456.89H696.5C695.86 456.89 693.22 452.44 690.47 451.91C676.22 449.13 673.95 469.04 686.51 469.95C694.41 470.52 695.3 464.22 696.7 463.87L735.34 464.05L753.49 498.9L764 499.39L693.86 359.04L686.46 358.81L615.01 499.87C618.5 499.39 623.54 501.34 625.91 498.28L689.03 370.89L732.02 456.89H732ZM800 358.89H791V499.89H800V358.89ZM518 461.89C551.27 464.87 566.05 421.51 538.34 403.06C501.84 378.76 466.65 437.88 506.63 458.77C509.53 460.28 514.4 460.19 515.02 463.38L513.01 602.9H517L518 461.89ZM308.01 573.88C307.56 572.15 308.73 571.88 309.5 570.88C314.94 563.77 326.39 557.09 332.05 549.35C335.13 547.99 340.48 552.72 345.02 546.41C354.69 533.01 325.45 525.68 330.46 546.94C326.43 551.59 302.43 570.32 301.97 574.43C301.84 575.56 301.96 576.74 302.96 577.46L400.55 576.85C432.71 578.62 490.84 579.15 495.99 621.41C496.28 623.78 495.05 631.36 497.52 631.89L499.93 630.26C498.78 626.13 499.56 621.6 498.9 617.49C492.95 580.64 442.26 575.1 412.54 573.85C378.08 572.39 342.57 575.03 308 573.89L308.01 573.88ZM726 576.89L725.07 571.32L698.55 546.94C704.14 527.26 675.91 532.08 683.95 546.44C687.56 552.88 693.96 547.77 697.36 549.98C704.14 557.54 712.24 563.87 719.49 570.91C720.47 571.86 721.39 572.22 721 573.89C711.22 573.65 701.31 574 691.47 573.93C682.83 573.87 674.18 573.87 665.55 573.93C625.23 574.19 532.57 565.88 529.02 624.4C528.85 627.21 528.05 632.05 532 631.89C533.21 621.14 532.92 613.83 539.18 604.56C557.81 576.97 601.24 579.41 630.47 576.85L726.02 576.89H726ZM511 631.89V617.39C511 615.38 507.3 604.61 506.19 602.2C490.68 568.3 437.56 560.4 404.54 558.85C398.79 558.58 371.81 560.01 369.48 557.91C367.15 555.81 368.04 551.1 361.47 550.83C350.95 550.39 350.27 565.28 358.52 566.88C367.27 568.58 367.25 562.51 370.48 561.89C403.4 562.43 441.09 562.23 471.67 575.73C493.84 585.52 510.09 604.92 507.07 630.28L511 631.9V631.89ZM518 617.39C517.49 621.95 518.37 627.24 518 631.89H521C518.06 576.94 575.8 566.24 618.51 562.9C627.06 562.23 653.52 560.22 660.3 561.87C661.68 562.21 662.21 568.04 670.42 566.85C679.51 565.53 678.29 550.38 667.52 550.83C660.96 551.1 661.87 555.78 659.51 557.91C657.15 560.04 634.69 558.61 629.45 558.85C591.01 560.63 523.53 568.22 517.99 617.39H518ZM488 630.9C489.52 585.64 438.99 587.12 406.46 587.85C392.4 588.17 377.65 589.01 363.51 589.9C348.02 590.88 332.48 592.85 316.99 593.89V596.88C339.42 594.94 361.92 593.71 384.49 592.87C408.29 591.99 447.98 587.5 468.67 599.71C480.89 606.92 484.02 617.3 485.02 630.87H487.99L488 630.9ZM710.01 593.89C683.91 590.89 657.76 589.78 631.51 588.88C608.11 588.07 569.62 583.86 551.6 601.99C544.08 609.56 540.52 620.3 541 630.88L544.52 629.91C546.46 580.61 606.09 593.73 639.54 591.84L708.5 596.92L710.01 593.89ZM476 676.39C474.46 671.76 477.15 658.57 476 652.89L492.35 655.04L493.86 656.53L494.06 681.32C493.87 682.43 485.24 680.52 485.94 690.38C486.67 700.63 501.51 699.68 502.06 690.38C502.46 683.62 497 681.95 497 681.4V655.9L513 656.9L512.67 695.46C493.42 705.71 518.51 721.6 521.78 707.19C523.85 698.08 516 697.57 516 696.9V656.9L531 655.9V682.4C531 683.14 522.6 688.25 528.98 695.42C538.31 705.92 552.07 685.02 534.94 681.29L535 654.89L553.01 652.9V675.4C553.01 676.25 542.87 683.15 550.49 689.92C560.6 698.91 572.72 679.02 556.95 675.27V651.51L564.88 648.27C565.98 633.55 560.5 615.58 580.47 613.86C624.23 610.1 672.67 619.56 716.48 621.93C717.99 622.01 719.52 621.86 721.01 621.9V617.88L726.34 617.85C736.71 637.95 752.41 610.76 736.25 608.06C729.75 606.98 728.97 615.56 721.55 613.96C720.9 610.47 719.95 610.41 716.39 610.02C681.05 606.09 643.04 603.69 607.51 602.88C592.71 602.54 568.63 599.88 558.56 613.96C552.93 621.83 554.05 630.7 553.9 639.8C528.26 645.67 500.76 645.81 475.13 639.76C475.31 627.32 476.08 614.43 463.7 607.69C451.34 600.96 435.87 602.73 422.54 602.94C383.72 603.55 345.2 607.5 306.58 610.84L305.87 613.71L301.04 614.9C299.83 608.53 293.59 606.12 288.08 609.48C278.88 615.09 288.49 629.78 298.28 622.94C301.3 620.83 299.53 615.96 307 617.89V621.91C346.1 618.47 385.25 614.73 424.54 613.94C433.4 613.76 445.48 611.95 454.24 615.16C467.52 620.02 463.09 638.65 464.1 649.8C466.83 650.71 471.33 649.92 472.01 653.39C472.38 655.3 472.76 675.08 471.95 675.86C471.63 676.17 466.26 675.8 464.53 679.93C459.46 691.99 478.95 697.63 480.33 684.75C481.1 677.56 476.52 677.96 476 676.41V676.39Z" fill="white"/>
<path d="M476 676.39C476.51 677.94 481.09 677.53 480.33 684.73C478.95 697.61 459.46 691.98 464.53 679.91C466.26 675.79 471.63 676.15 471.95 675.84C472.76 675.06 472.38 655.28 472.01 653.37C471.33 649.91 466.83 650.7 464.1 649.78C463.09 638.63 467.52 620 454.24 615.14C445.48 611.93 433.41 613.74 424.54 613.92C385.25 614.71 346.11 618.44 307 621.89V617.87C299.53 615.94 301.3 620.81 298.28 622.92C288.49 629.76 278.88 615.07 288.08 609.46C293.58 606.1 299.83 608.51 301.04 614.88L305.87 613.69L306.58 610.82C345.2 607.48 383.72 603.53 422.54 602.92C435.87 602.71 451.34 600.94 463.7 607.67C476.08 614.41 475.3 627.3 475.13 639.74C500.76 645.78 528.26 645.64 553.9 639.78C554.05 630.69 552.93 621.81 558.56 613.94C568.63 599.86 592.7 602.53 607.51 602.86C643.04 603.67 681.05 606.07 716.39 610C719.95 610.4 720.89 610.45 721.55 613.94C728.97 615.55 729.75 606.96 736.25 608.04C752.42 610.74 736.71 637.92 726.34 617.83L721 617.86V621.88C719.51 621.84 717.98 621.99 716.48 621.91C672.67 619.53 624.23 610.08 580.47 613.84C560.5 615.55 565.98 633.53 564.88 648.25L556.95 651.49V675.25C572.71 679 560.59 698.89 550.49 689.9C542.87 683.13 553.01 676.22 553.01 675.38V652.88L535 654.87L534.94 681.27C552.07 685 538.31 705.9 528.98 695.4C522.6 688.23 531 683.12 531 682.38V655.88L516 656.88V696.88C516 697.54 523.85 698.05 521.78 707.17C518.51 721.58 493.42 705.69 512.67 695.44L513 656.88L497 655.88V681.38C497 681.93 502.46 683.59 502.06 690.36C501.51 699.67 486.67 700.62 485.94 690.36C485.24 680.5 493.87 682.41 494.06 681.3L493.86 656.51L492.35 655.02L476 652.87C477.15 658.55 474.46 671.74 476 676.37V676.39ZM290.71 612.08C286.74 613.28 286.85 620.09 291.55 620.88C300.5 622.38 300.1 609.25 290.71 612.08ZM732.67 612.05C729.06 613.32 729.05 620.72 734.5 621C743.36 621.46 741.04 609.11 732.67 612.05ZM470.73 679.04C466.57 680.15 465.32 686.03 470.28 688.14C478.26 691.54 479.81 676.6 470.73 679.04ZM555.74 679.02C545.93 680.43 555.11 694.53 560.06 686.44C562.25 682.87 559.31 678.5 555.74 679.02ZM490.25 686.14C485.72 690.67 492.9 697.07 497.52 692.91C502.14 688.75 494.47 681.92 490.25 686.14ZM533.7 685.02C525.78 687.35 533.76 699.99 538.88 692.27C541.52 688.29 537.46 683.91 533.7 685.02ZM517.75 701.14C513.76 697.14 505.93 702.6 509.9 707.48C513.87 712.36 522.78 706.18 517.75 701.14Z" fill="#3B82F6"/>
<path d="M277.5 358.89C309.05 362.09 324.72 395.33 301.01 418.4L290 424.88C326.22 428.9 332.66 481.48 298.98 495.37C295.14 496.95 284.27 499.89 280.5 499.89H224V358.89C241.13 360.16 260.65 357.18 277.5 358.89ZM234 419.89C260.18 419.92 306.85 429.35 301.89 388.5C299.67 370.18 278.23 367.72 263.49 366.9C253.72 366.36 243.78 367.28 234 366.89V419.89ZM234 490.89H281.5C283.88 490.89 293.68 487.82 296.24 486.63C314.9 477.91 316.87 449.71 301.03 437.37C296.02 433.46 283.7 428.89 277.51 428.89H234V490.89Z" fill="#3B82F6"/>
<path d="M732 456.89L689.01 370.89L625.89 498.28C623.53 501.34 618.48 499.4 614.99 499.87L686.44 358.81L693.84 359.04L763.98 499.39L753.47 498.9L735.32 464.05L696.68 463.87C695.28 464.21 694.39 470.52 686.49 469.95C673.93 469.04 676.2 449.13 690.45 451.91C693.19 452.44 695.84 456.89 696.48 456.89H731.98H732Z" fill="#3B82F6"/>
<path d="M503 498.39L500.93 499.49C448.59 486.64 430.49 422.39 466.02 382.42C491.91 353.29 537.98 349.09 568 374.38C615.06 414.01 597.46 486.75 538.43 500.83C537.11 502.69 537.42 541.64 537.91 546.45C538.11 548.44 540.99 547.68 539.99 550.88H532.99L535.07 546.45L534.95 480.54C586.01 468.17 586.79 395.36 537.21 380.17C472.55 360.35 437.95 456.34 502.99 477.89V498.39H503ZM499 494.89V480.89C450.16 463.1 454.41 392.36 503.48 376.87C549.97 362.2 592.15 407.68 573.48 452.87C566.98 468.59 553.74 477.75 538.49 483.88L538 495.89C564.93 492.53 588.58 465.13 590.98 438.37C597.23 368.92 509.3 333.22 466.02 388.41C436.53 426.02 453.33 481.46 498.99 494.88L499 494.89Z" fill="#3B82F6"/>
<path d="M364 358.89V490.89H435V499.89H354V358.89H364Z" fill="#3B82F6"/>
<path d="M800 358.89H791V499.89H800V358.89Z" fill="#3B82F6"/>
<path d="M518 461.89L517 602.9H513.01L515.02 463.38C514.4 460.18 509.53 460.28 506.63 458.77C466.64 437.88 501.84 378.76 538.34 403.06C566.05 421.51 551.27 464.87 518 461.89ZM515.74 402.13C480.85 407.7 487.59 464.38 527.26 457.65C560.69 451.98 553.59 396.09 515.74 402.13Z" fill="#3B82F6"/>
<path d="M726 576.89L630.45 576.85C601.22 579.41 557.79 576.97 539.16 604.56C532.91 613.82 533.19 621.14 531.98 631.89C528.04 632.06 528.83 627.22 529 624.4C532.54 565.88 625.21 574.19 665.53 573.93C674.16 573.87 682.8 573.87 691.45 573.93C701.29 574 711.2 573.64 720.98 573.89C721.36 572.22 720.45 571.86 719.47 570.91C712.23 563.87 704.12 557.54 697.34 549.98C693.95 547.77 687.54 552.89 683.93 546.44C675.89 532.08 704.12 527.26 698.53 546.94L725.05 571.32L725.98 576.89H726ZM694.75 538.14C691.63 535.02 684.65 537.55 686.15 543.17C688.27 551.15 700.37 543.78 694.75 538.14Z" fill="#3B82F6"/>
<path d="M308.01 573.88C342.57 575.02 378.08 572.39 412.55 573.84C442.26 575.09 492.96 580.63 498.91 617.48C499.57 621.59 498.79 626.12 499.94 630.25L497.53 631.88C495.06 631.35 496.29 623.77 496 621.4C490.85 579.15 432.71 578.61 400.56 576.84L302.97 577.45C301.97 576.73 301.85 575.55 301.98 574.42C302.44 570.31 326.44 551.59 330.47 546.93C325.46 525.67 354.7 533 345.03 546.4C340.48 552.7 335.14 547.97 332.06 549.34C326.4 557.08 314.95 563.77 309.51 570.87C308.74 571.87 307.57 572.14 308.02 573.87L308.01 573.88ZM334.25 538.13C329.48 542.83 339.06 550.84 342.51 543.89C345.5 537.87 337.82 534.61 334.25 538.13Z" fill="#3B82F6"/>
<path d="M511 631.89L507.07 630.27C510.09 604.91 493.84 585.51 471.67 575.72C441.09 562.22 403.41 562.42 370.48 561.88C367.25 562.5 367.27 568.57 358.52 566.87C350.27 565.27 350.96 550.38 361.47 550.82C368.03 551.09 367.11 555.77 369.48 557.9C371.85 560.03 398.79 558.57 404.54 558.84C437.56 560.39 490.68 568.29 506.19 602.19C507.29 604.6 511 615.37 511 617.38V631.88V631.89ZM364.75 562.64C367.61 559.8 364.77 553.43 360.21 554.54C350.67 556.85 359.11 568.24 364.75 562.64Z" fill="#3B82F6"/>
<path d="M518 617.39C523.54 568.22 591.02 560.63 629.46 558.85C634.7 558.61 657.22 559.98 659.52 557.91C661.82 555.84 660.96 551.1 667.53 550.83C678.3 550.38 679.52 565.53 670.43 566.85C662.22 568.04 661.69 562.21 660.31 561.87C653.53 560.22 627.07 562.23 618.52 562.9C575.81 566.24 518.07 576.94 521.01 631.9H518.01C518.38 627.24 517.5 621.95 518.01 617.39H518ZM671.75 562.64C676.24 558.15 669.21 551.71 664.48 555.87C660.35 559.5 667.27 567.13 671.75 562.64Z" fill="#3B82F6"/>
<path d="M488 630.9H485.03C484.03 617.31 480.89 606.93 468.68 599.73C447.99 587.52 408.3 592.01 384.5 592.89C361.93 593.72 339.43 594.96 317 596.9V593.91C332.49 592.87 348.02 590.89 363.52 589.92C377.66 589.03 392.41 588.19 406.47 587.87C438.99 587.14 489.52 585.66 488.01 630.92L488 630.9Z" fill="#3B82F6"/>
<path d="M710.01 593.89L708.5 596.92L639.54 591.84C606.09 593.73 546.46 580.6 544.52 629.91L541 630.88C540.52 620.3 544.08 609.55 551.6 601.99C569.62 583.85 608.11 588.07 631.51 588.88C657.75 589.79 683.91 590.89 710.01 593.89Z" fill="#3B82F6"/>
<path d="M290.71 612.08C300.11 609.25 300.5 622.38 291.55 620.88C286.85 620.09 286.74 613.28 290.71 612.08Z" fill="#3B82F6"/>
<path d="M470.73 679.04C479.81 676.61 478.26 691.54 470.28 688.14C465.32 686.03 466.57 680.15 470.73 679.04Z" fill="#3B82F6"/>
<path d="M732.67 612.05C741.04 609.11 743.36 621.46 734.5 621C729.05 620.72 729.06 613.32 732.67 612.05Z" fill="#3B82F6"/>
<path d="M517.75 701.14C522.78 706.19 513.83 712.32 509.9 707.48C505.97 702.64 513.77 697.14 517.75 701.14Z" fill="#3B82F6"/>
<path d="M555.74 679.02C559.31 678.51 562.25 682.88 560.06 686.44C555.1 694.52 545.93 680.43 555.74 679.02Z" fill="#3B82F6"/>
<path d="M490.25 686.14C494.47 681.92 502.15 688.74 497.52 692.91C492.89 697.08 485.72 690.67 490.25 686.14Z" fill="#3B82F6"/>
<path d="M533.7 685.02C537.47 683.91 541.53 688.29 538.88 692.27C533.75 699.99 525.77 687.34 533.7 685.02Z" fill="#3B82F6"/>
<path d="M234 490.89V428.89H277.5C283.69 428.89 296.01 433.46 301.02 437.37C316.87 449.71 314.9 477.91 296.23 486.63C293.67 487.83 283.87 490.89 281.49 490.89H234Z" fill="white"/>
<path d="M234 419.89V366.89C243.78 367.28 253.72 366.36 263.49 366.9C278.23 367.72 299.66 370.18 301.89 388.5C306.85 429.35 260.18 419.92 234 419.89Z" fill="white"/>
<path d="M499 494.89C453.34 481.46 436.54 426.03 466.03 388.42C509.31 333.23 597.23 368.93 590.99 438.38C588.58 465.14 564.93 492.54 538.01 495.9L538.5 483.89C553.74 477.76 566.99 468.6 573.49 452.88C592.16 407.7 549.98 362.21 503.49 376.88C454.41 392.37 450.16 463.1 499.01 480.9V494.9L499 494.89Z" fill="white"/>
<path d="M515.74 402.13C553.6 396.09 560.69 451.98 527.26 457.65C487.59 464.38 480.85 407.7 515.74 402.13ZM517.74 413.13C492.24 417.48 505.07 457.82 529.06 445.45C546.63 436.39 538.24 409.64 517.74 413.13Z" fill="white"/>
<path d="M694.75 538.14C700.37 543.77 688.27 551.15 686.15 543.17C684.66 537.56 691.64 535.02 694.75 538.14Z" fill="#3B82F6"/>
<path d="M334.25 538.13C337.82 534.61 345.5 537.87 342.51 543.89C339.06 550.84 329.47 542.83 334.25 538.13Z" fill="#3B82F6"/>
<path d="M364.75 562.64C359.11 568.24 350.67 556.85 360.21 554.54C364.77 553.43 367.61 559.8 364.75 562.64Z" fill="#3B82F6"/>
<path d="M671.75 562.64C667.26 567.13 660.35 559.5 664.48 555.87C669.22 551.71 676.24 558.15 671.75 562.64Z" fill="#3B82F6"/>
<path d="M517.74 413.13C538.24 409.64 546.63 436.39 529.06 445.45C505.06 457.82 492.24 417.48 517.74 413.13Z" fill="#3B82F6"/>
</g>
<defs>
<clipPath id="clip0_1_35">
<rect width="1024" height="1025" fill="white"/>
</clipPath>
</defs>
</svg>
